# xmcd
#
# Track frame offsets: 
#        150
#        12778
#        34374
#        53106
#        65169
#        79239
#        96556
#        114169
#        128601
#        142923
#        157757
#        172933
#        189590
#        200154
#        225649
#
# Disc length: 3268 seconds
#
# Revision: 0
# Processed by: cddbd v1.5.2PL0 Copyright (c) Steve Scherf et al.
# Submitted via: ExactAudioCopy v0.95a5
#
DISCID=c50cc20f
DTITLE=Stan Webb's Chicken Shack - Webb's Blues
DYEAR=1993
DGENRE=Blues
TTITLE0=I'm Torn Down
TTITLE1=A Blues Song
TTITLE2=Every Little Beat Of My Heart
TTITLE3=Sweet Nothin's
TTITLE4=Crying Again
TTITLE5=Who Cares
TTITLE6=Hold On
TTITLE7=Webb's Blues
TTITLE8=Homework
TTITLE9=Evil
TTITLE10=Set Me Free
TTITLE11=Every Day I Have The Blues
TTITLE12=Time Goes By
TTITLE13=I'd Rather Go Blind
TTITLE14=Baby What You Want Me To Do
EXTD=
EXTT0=
EXTT1=
EXTT2=
EXTT3=
EXTT4=
EXTT5=
EXTT6=
EXTT7=
EXTT8=
EXTT9=
EXTT10=
EXTT11=
EXTT12=
EXTT13=
EXTT14=
PLAYORDER=
